<?xml version="1.0" encoding="UTF-8" standalone="no"?>
<!-- Uploaded to: SVG Repo, www.svgrepo.com, Generator: SVG Repo Mixer Tools -->

<svg
   fill="#FFFFFF"
   version="1.1"
   id="Capa_1"
   viewBox="0 0 32 32"
   xml:space="preserve"
   sodipodi:docname="computer-sleep-mode-monitor-screen-symbol-with-a-night-image-svgrepo-com.svg"
   inkscape:version="1.2.2 (b0a8486541, 2022-12-01)"
   xmlns:inkscape="http://www.inkscape.org/namespaces/inkscape"
   xmlns:sodipodi="http://sodipodi.sourceforge.net/DTD/sodipodi-0.dtd"
   xmlns="http://www.w3.org/2000/svg"
   xmlns:svg="http://www.w3.org/2000/svg"><defs
   id="defs13" /><sodipodi:namedview
   id="namedview11"
   pagecolor="#ffffff"
   bordercolor="#000000"
   borderopacity="0.25"
   inkscape:showpageshadow="2"
   inkscape:pageopacity="0.0"
   inkscape:pagecheckerboard="0"
   inkscape:deskcolor="#d1d1d1"
   showgrid="false"
   inkscape:zoom="0.98125"
   inkscape:cx="399.49045"
   inkscape:cy="401.01911"
   inkscape:window-width="1920"
   inkscape:window-height="1011"
   inkscape:window-x="0"
   inkscape:window-y="0"
   inkscape:window-maximized="1"
   inkscape:current-layer="Capa_1" />
<g
   id="g8"
   style="fill:#ffffff">
	<g
   id="g6"
   style="fill:#ffffff">
		<path
   d="M23.724,27.417l-2.418-1.813c-0.276-0.207-0.782-0.377-1.129-0.377h-3.251v0.422c0,0.69-0.562,1.254-1.254,1.254    c-0.691,0-1.254-0.563-1.254-1.254v-0.422h-3.251c-0.346,0-0.853,0.17-1.13,0.377L7.62,27.417    c-0.277,0.206-0.222,0.375,0.124,0.375h15.855C23.945,27.792,24.001,27.624,23.724,27.417z"
   id="path2"
   style="fill:#ffffff" />
		<path
   d="M30.089,3.551H1.255C0.566,3.551,0,4.115,0,4.805v16.299c0,0.688,0.565,1.254,1.255,1.254h13.79v3.291    c0,0.346,0.281,0.625,0.627,0.625c0.346,0,0.627-0.279,0.627-0.625v-3.291h13.79c0.688,0,1.255-0.565,1.255-1.254V4.805    C31.344,4.115,30.777,3.551,30.089,3.551z M20.537,9.539l0.222,0.108l0.215-0.122l-0.034,0.244l0.184,0.166L20.88,9.979    l-0.103,0.226L20.66,9.986l-0.244-0.028l0.172-0.178L20.537,9.539z M20.533,12.512l-0.117-0.575l0.529,0.256l0.509-0.291    l-0.08,0.582l0.433,0.397l-0.578,0.103l-0.242,0.535L20.711,13l-0.584-0.067L20.533,12.512z M18.549,10.311l0.363,0.176    l0.351-0.198l-0.057,0.399l0.297,0.271l-0.396,0.07l-0.166,0.366l-0.189-0.354l-0.4-0.046l0.28-0.29L18.549,10.311z M11.774,8.07    l0.222,0.109l0.215-0.124L12.178,8.3l0.182,0.167l-0.243,0.044l-0.103,0.225l-0.116-0.218l-0.246-0.029l0.173-0.177L11.774,8.07z     M9.529,11.23l0.211-0.417l0.202,0.421l0.462,0.071l-0.337,0.323l0.075,0.46L9.73,11.867l-0.416,0.214l0.085-0.459l-0.333-0.33    L9.529,11.23z M15.916,18.237c-0.09,0-0.176-0.01-0.259-0.025c-0.272,0.577-0.855,0.979-1.535,0.979    c-0.463,0-0.881-0.184-1.189-0.483c-0.269,0.18-0.59,0.284-0.938,0.284c-0.567,0-1.066-0.28-1.377-0.707    c-0.178,0.062-0.367,0.104-0.567,0.104c-0.942,0-1.705-0.764-1.705-1.703c0-0.901,0.701-1.633,1.586-1.694    c0.17-0.764,0.849-1.336,1.663-1.336c0.546,0,1.025,0.263,1.338,0.66c0.332-0.276,0.753-0.447,1.219-0.447    c0.976,0,1.772,0.732,1.891,1.676c0.688,0.064,1.229,0.637,1.229,1.341C17.27,17.632,16.663,18.237,15.916,18.237z M20.775,18.032    c-1.389,0.801-2.957,0.986-4.403,0.652c0.807-0.205,1.405-0.932,1.405-1.801c0-0.83-0.539-1.535-1.305-1.771    c-0.294-1.023-1.234-1.754-2.321-1.754c-0.407,0-0.799,0.101-1.152,0.298c-0.375-0.313-0.838-0.487-1.329-0.504    c-0.143-2.233,0.953-4.46,3.022-5.655c0.961-0.557,2.01-0.813,3.043-0.811c-1.047,1.819-1.127,4.128-0.002,6.077    c1.125,1.948,3.166,3.033,5.266,3.036C22.482,16.696,21.734,17.477,20.775,18.032z"
   id="path4"
   style="fill:#ffffff" />
	</g>
</g>
<path
   style="fill:#000000;stroke-width:1.01911"
   d="m 351.42257,488.15319 c -7.15139,-1.55479 -9.06966,-2.43619 -16.00186,-7.3524 l -4.96145,-3.51858 -5.99215,2.68911 c -16.90858,7.58812 -34.35273,4.59954 -47.75176,-8.18097 -5.9883,-5.71187 -6.04515,-5.73838 -9.7119,-4.52824 -5.69078,1.87813 -17.63907,1.46185 -24.1968,-0.843 -21.02899,-7.39109 -33.45005,-29.91374 -27.91814,-50.62293 4.31525,-16.1545 18.66768,-29.75223 33.47711,-31.71677 3.31723,-0.44005 5.24227,-1.23505 5.59689,-2.31139 0.2973,-0.90235 1.7993,-4.39222 3.33779,-7.75528 12.06501,-26.37356 46.06611,-32.99822 67.32114,-13.11663 l 5.18535,4.85029 2.73992,-1.78283 c 11.77701,-7.66316 24.30535,-10.75344 35.76167,-8.82108 19.70592,3.32384 34.69091,17.40131 39.81411,37.40291 1.03736,4.04999 1.38024,4.3488 6.7972,5.92355 31.16722,9.06056 34.10439,49.91679 4.56567,63.5088 -4.42081,2.0342 -7.40267,2.64685 -13.07089,2.68553 -7.33967,0.05 -7.34454,0.052 -9.38858,3.68783 -3.06932,5.45956 -12.61203,13.97999 -18.86191,16.84127 -4.9823,2.28098 -14.94473,4.59798 -18.92831,4.40223 -0.84077,-0.0413 -4.35666,-0.68996 -7.8131,-1.44142 z"
   id="path380"
   transform="scale(0.03918)" /><path
   style="fill:#000000;stroke-width:1.01911"
   d="m 353.63057,488.18894 c -0.56051,-0.23971 -2.88629,-0.91477 -5.1684,-1.50013 -2.28212,-0.58537 -7.27858,-3.07771 -11.10324,-5.53854 l -6.95395,-4.47423 -5.20248,2.28102 c -17.66089,7.74339 -33.36449,5.28556 -47.80957,-7.48289 -6.5406,-5.78142 -6.23105,-5.69141 -14.12196,-4.10669 -17.28407,3.47114 -36.81846,-7.07852 -44.9692,-24.28587 -3.00228,-6.33823 -3.26992,-7.73741 -3.26992,-17.09435 0,-9.28946 0.27926,-10.77714 3.15656,-16.81529 4.49365,-9.43012 11.2564,-16.49185 19.96675,-20.84946 3.96782,-1.98502 8.44076,-3.60913 9.93985,-3.60913 4.05955,0 5.79996,-1.78517 9.70358,-9.95308 4.5171,-9.45153 11.61918,-16.63971 20.68217,-20.9329 6.30042,-2.98455 7.71388,-3.25415 17.06064,-3.25415 9.34136,0 10.76238,0.27063 17.04288,3.24584 3.76849,1.78521 9.1016,5.35026 11.85135,7.92232 l 4.99954,4.67649 7.51171,-4.0493 c 13.0286,-7.02326 24.6009,-8.83255 35.60701,-5.56705 16.67924,4.94873 27.92877,15.65449 33.613,31.98826 1.26788,3.64331 2.80666,7.12858 3.41949,7.74504 0.61285,0.61646 4.00205,2.17088 7.53159,3.45427 8.26331,3.00466 15.52513,9.48008 19.20979,17.12949 2.27872,4.73067 2.80267,7.23265 2.81753,13.45464 0.0438,18.3282 -13.15224,32.0671 -32.20233,33.52701 l -8.00052,0.61312 -3.80243,5.03597 c -8.57394,11.3554 -20.2713,17.84738 -33.35657,18.51271 -3.92357,0.19949 -7.59236,0.1666 -8.15287,-0.0731 z"
   id="path382"
   transform="scale(0.03918)" /><path
   style="fill:#000000;stroke-width:1.01911"
   d="m 440.25478,479.90816 c -1.68153,-0.24297 -6.881,-0.94803 -11.55438,-1.5668 l -8.49706,-1.12503 6.9684,-3.37414 c 28.37867,-13.74109 35.78217,-50.6666 14.99147,-74.77115 -4.30102,-4.98659 -14.24665,-11.84567 -18.54503,-12.78976 -2.2337,-0.49059 -3.1473,-1.64601 -4.65246,-5.88389 -6.26784,-17.64751 -23.3114,-32.91724 -42.40521,-37.99181 -11.68835,-3.10642 -31.02111,-1.38894 -40.85864,3.62979 -3.70448,1.88989 -3.83431,1.89016 -6.22053,0.0131 -6.47919,-5.09652 -18.36729,-9.50436 -28.33484,-10.5059 l -2.54777,-0.256 0.0421,-13.2484 c 0.0918,-28.88959 9.14724,-57.72712 26.12357,-83.19178 8.56433,-12.84658 27.83098,-32.11558 40.53783,-40.54278 21.93522,-14.54745 47.95777,-24.28227 69.62103,-26.04464 4.05336,-0.32976 9.52338,-0.82781 12.15562,-1.10679 l 4.78587,-0.50723 -4.50741,9.07113 c -9.87814,19.87963 -14.60555,39.11447 -15.44235,62.83164 -1.08231,30.67492 5.05788,56.41393 19.60869,82.19761 25.22789,44.7032 69.88551,73.30538 122.1925,78.2615 6.08332,0.5764 11.23353,1.22094 11.44491,1.43234 0.74307,0.74307 -9.76463,15.52264 -16.76892,23.58626 -13.15005,15.13885 -28.84208,27.08317 -47.62783,36.25293 -21.73157,10.60769 -39.93937,15.1365 -63.18471,15.71588 -7.84714,0.19559 -15.64331,0.15682 -17.32484,-0.0861 z"
   id="path384"
   transform="scale(0.03918)" /><path
   style="fill:#000000;stroke-width:1.01911"
   d="m 532.21031,337.35015 c -2.88388,-5.88011 -3.04777,-5.97551 -12.34533,-7.18612 l -4.97578,-0.64788 4.86756,-4.94188 4.86756,-4.94187 -1.23644,-6.2847 c -0.68004,-3.45659 -1.02992,-6.49123 -0.7775,-6.74364 0.25242,-0.25242 3.04578,0.80976 6.20748,2.3604 l 5.74853,2.81935 6.14034,-3.37567 6.14033,-3.37567 -0.63948,5.44555 c -0.35172,2.99505 -0.84342,6.08661 -1.09268,6.87012 -0.25483,0.80102 1.88636,3.52003 4.89175,6.21185 l 5.34495,4.78727 -6.99714,1.32027 -6.99715,1.32026 -2.63905,5.97108 c -1.45148,3.28408 -2.89382,5.97107 -3.20521,5.97107 -0.31139,0 -1.79762,-2.51091 -3.30274,-5.57979 z"
   id="path386"
   transform="scale(0.03918)" /><path
   style="fill:#000000;stroke-width:1.01911"
   d="m 528.97101,256.47529 c -0.51934,-1.6363 -1.5152,-2.20777 -3.84732,-2.20777 -3.13082,0 -3.1369,-0.0107 -1.21207,-2.13763 1.07659,-1.18962 1.79223,-3.22342 1.61368,-4.58598 -0.34223,-2.61156 0.42816,-3.0023 2.87248,-1.45692 1.02359,0.64715 2.26966,0.46826 3.82166,-0.54865 2.19461,-1.43797 2.30285,-1.37983 2.30285,1.2369 0,1.51019 0.72139,3.54292 1.60309,4.51719 1.47443,1.62922 1.41309,1.8284 -0.76433,2.48177 -1.30208,0.39071 -3.11485,1.65505 -4.02837,2.80963 l -1.66094,2.09924 z"
   id="path388"
   transform="scale(0.03918)" /><path
   style="fill:#000000;stroke-width:1.01911"
   d="m 481.01911,285.09279 c -1.83594,-3.43991 -2.52545,-3.86947 -6.94775,-4.32846 l -4.90953,-0.50955 3.50981,-3.39005 c 3.31493,-3.20182 3.45824,-3.61952 2.58118,-7.52303 -0.51074,-2.27314 -0.78697,-4.27464 -0.61385,-4.44776 0.17313,-0.17313 2.13808,0.49894 4.36656,1.49349 3.89438,1.73801 4.17057,1.73587 7.10912,-0.0549 4.40875,-2.68676 4.89423,-2.38614 4.15096,2.57034 -0.62307,4.15492 -0.43692,4.64579 2.85933,7.53994 l 3.52579,3.09568 -4.51577,0.67719 c -3.95783,0.59351 -4.76868,1.17291 -6.56264,4.68936 -1.12578,2.2067 -2.15219,4.01094 -2.28093,4.00942 -0.12874,-0.002 -1.15126,-1.72126 -2.27228,-3.82165 z"
   id="path390"
   transform="scale(0.03918)" /><path
   style="fill:#000000;stroke-width:1.01911"
   d="m 305.3055,219.27272 c -0.97132,-1.82175 -2.27788,-2.71221 -3.97961,-2.71221 -2.4539,0 -2.47656,-0.0629 -0.72127,-2.00251 1.13438,-1.25347 1.62752,-2.96885 1.31838,-4.58598 -0.55839,-2.92103 -0.41711,-3.00826 2.41616,-1.49195 1.55437,0.83188 2.62369,0.7088 4.49507,-0.51738 2.4177,-1.58413 2.44669,-1.56474 1.88203,1.25854 -0.38486,1.92434 -0.0455,3.30565 1.0318,4.19973 1.88533,1.56468 1.23673,3.13955 -1.293,3.13955 -1.00875,0 -2.19817,1.17632 -2.74241,2.71221 l -0.96106,2.71221 z"
   id="path392"
   transform="scale(0.03918)" /><path
   style="fill:#000000;stroke-width:1.01911"
   d="m 239.52213,301.47905 c 0.63233,-5.68821 0.52779,-6.06339 -2.48836,-8.93086 -3.87827,-3.68709 -3.94939,-4.64612 -0.34587,-4.66402 5.30605,-0.0263 7.03385,-1.11113 9.3443,-5.86671 l 2.28872,-4.71088 2.71852,5.04098 c 2.00348,3.71507 3.38865,5.11602 5.26629,5.32628 1.40128,0.15692 3.64752,0.52664 4.99165,0.82162 2.43243,0.5338 2.42642,0.55419 -1.28126,4.3512 -3.65063,3.73859 -3.70629,3.91579 -2.78278,8.85911 0.5183,2.77432 0.82066,5.16592 0.67191,5.31467 -0.14875,0.14875 -2.40771,-0.92407 -5.0199,-2.38406 l -4.74944,-2.65451 -4.63692,2.71741 -4.63691,2.71741 z"
   id="path394"
   transform="scale(0.03918)" /></svg>
